<?xml version="1.0" encoding="iso-8859-1"?>
<!-- Generator: Adobe Illustrator 19.0.0, SVG Export Plug-In . SVG Version: 6.00 Build 0)  -->
<svg version="1.1" id="Layer_1" xmlns="http://www.w3.org/2000/svg" xmlns:xlink="http://www.w3.org/1999/xlink" x="0px" y="0px" width="40px"
	 viewBox="0 0 512 512" style="enable-background:new 0 0 512 512; fill:#bd9a7a;" xml:space="preserve">
<g>
	<g>
		<g>
			<path d="M252.534,54.19c0-22.605-18.392-40.997-40.997-40.997H40.996C18.391,13.193,0,31.585,0,54.19
				c0,0.779,0.045,1.557,0.135,2.332l25.831,223.196c0,0.005,0.001,0.011,0.001,0.016L37.624,380.45
				c0.453,13.785,7.748,25.87,18.589,32.964v65.114c0,11.199,9.08,20.279,20.279,20.279h99.554c11.199,0,20.279-9.079,20.279-20.279
				v-65.111c10.842-7.094,18.139-19.178,18.59-32.967l37.487-323.928C252.49,55.748,252.534,54.969,252.534,54.19z M155.765,458.248
				H96.769v-38.165h58.996V458.248z M174.512,376.755c-0.089,0.773-0.135,1.552-0.135,2.331c0,0.119-0.05,0.226-0.127,0.304H78.284
				c-0.077-0.078-0.127-0.185-0.127-0.304c0-0.779-0.045-1.557-0.135-2.332L67.547,286.24L197.51,178.018L174.512,376.755z
				 M204.27,119.611L61.977,238.103L40.66,53.908c0.081-0.096,0.201-0.157,0.335-0.157h170.54c0.135,0,0.255,0.061,0.337,0.157
				L204.27,119.611z"/>
			<path d="M453.219,258.76v-73.923c0-11.199-9.079-20.279-20.279-20.279H315.734c-11.199,0-20.279,9.079-20.279,20.279v73.923
				c-33.453,6.539-58.78,36.062-58.78,71.4v95.882c0,40.122,32.642,72.763,72.763,72.763h129.799
				c40.122,0,72.763-32.642,72.763-72.763V330.16C512,294.822,486.672,265.299,453.219,258.76z M336.013,205.116h76.648v52.281
				h-76.648V205.116z M439.237,458.248H309.438c-17.759,0-32.205-14.448-32.205-32.205V330.16c0-17.757,14.448-32.205,32.205-32.205
				h6.296H432.94h6.296c17.759,0,32.205,14.448,32.205,32.205v95.882h0.001C471.442,443.801,456.995,458.248,439.237,458.248z"/>
			<path d="M374.337,316.385c-34.031,0-61.715,27.686-61.715,61.716c0,34.031,27.686,61.716,61.715,61.716
				c34.03,0,61.716-27.686,61.716-61.716C436.053,344.071,408.367,316.385,374.337,316.385z M374.337,399.261
				c-11.667,0-21.158-9.492-21.158-21.159s9.492-21.159,21.158-21.159c11.667,0,21.159,9.492,21.159,21.159
				S386.004,399.261,374.337,399.261z"/>
		</g>
	</g>
</g>
<g>
</g>
<g>
</g>
<g>
</g>
<g>
</g>
<g>
</g>
<g>
</g>
<g>
</g>
<g>
</g>
<g>
</g>
<g>
</g>
<g>
</g>
<g>
</g>
<g>
</g>
<g>
</g>
<g>
</g>
</svg>
