<svg width="691" height="677" viewBox="0 0 691 677" fill="none" xmlns="http://www.w3.org/2000/svg">
<g clip-path="url(#clip0_61_18)">
<path d="M265.488 113.771L332.036 206.946L153.628 439.9L265.488 113.771Z" fill="#928180" fill-opacity="0.18"/>
<path d="M531.681 486.471L465.132 393.296L186.902 486.487L531.681 486.471Z" fill="#928180" fill-opacity="0.18"/>
<path d="M159.645 470.778L348.673 230.24L448.495 370.003L159.645 470.778Z" fill="#928180" fill-opacity="0.18"/>
<path d="M358.585 187.984L292.037 94.8094L404.957 84.5113L358.585 187.984Z" fill="#928180" fill-opacity="0.18"/>
<path d="M558.229 467.51L491.681 374.335L604.602 364.036L558.229 467.51Z" fill="#928180" fill-opacity="0.18"/>
<path d="M458.407 327.747L391.859 234.572L504.779 224.274L458.407 327.747Z" fill="#928180" fill-opacity="0.18"/>
<path d="M427.251 115.725L488.142 200.98L375.222 211.278L427.251 115.725Z" fill="#928180" fill-opacity="0.18"/>
<path d="M521.416 247.568L587.965 340.743L475.044 351.041L521.416 247.568Z" fill="#928180" fill-opacity="0.18"/>
</g>
<defs>
<clipPath id="clip0_61_18">
<rect width="458" height="522" fill="white" transform="translate(424.781) rotate(54.4645)"/>
</clipPath>
</defs>
</svg>
