<svg width="602" height="600" viewBox="0 0 602 600" fill="none" xmlns="http://www.w3.org/2000/svg">
<g filter="url(#filter0_d_128_49)">
<path d="M136.894 247.248L218.96 247.224L279.953 444.565L136.894 247.248Z" fill="#928180"/>
<path d="M465.158 247.152L383.092 247.176L320.986 444.553L465.158 247.152Z" fill="#928180"/>
<path d="M300.443 453.739L239.476 247.219L362.575 247.182L300.443 453.739Z" fill="#928180"/>
<path d="M219.024 224.276L136.958 224.3L178.186 155.442L219.024 224.276Z" fill="#928180"/>
<path d="M465.222 224.203L383.156 224.227L424.383 155.369L465.222 224.203Z" fill="#928180"/>
<path d="M342.123 224.239L260.057 224.264L301.284 155.405L342.123 224.239Z" fill="#928180"/>
<path d="M205.678 155.433L280.768 155.411L239.541 224.269L205.678 155.433Z" fill="#928180"/>
<path d="M321.801 155.399L403.867 155.375L362.64 224.233L321.801 155.399Z" fill="#928180"/>
</g>
<defs>
<filter id="filter0_d_128_49" x="136.894" y="135.369" width="348.328" height="318.369" filterUnits="userSpaceOnUse" color-interpolation-filters="sRGB">
<feFlood flood-opacity="0" result="BackgroundImageFix"/>
<feColorMatrix in="SourceAlpha" type="matrix" values="0 0 0 0 0 0 0 0 0 0 0 0 0 0 0 0 0 0 127 0" result="hardAlpha"/>
<feOffset dx="10" dy="-10"/>
<feGaussianBlur stdDeviation="5"/>
<feComposite in2="hardAlpha" operator="out"/>
<feColorMatrix type="matrix" values="0 0 0 0 0 0 0 0 0 0 0 0 0 0 0 0 0 0 0.25 0"/>
<feBlend mode="normal" in2="BackgroundImageFix" result="effect1_dropShadow_128_49"/>
<feBlend mode="normal" in="SourceGraphic" in2="effect1_dropShadow_128_49" result="shape"/>
</filter>
</defs>
</svg>
