<?xml version="1.0" encoding="iso-8859-1"?>
<!-- Generator: Adobe Illustrator 19.0.0, SVG Export Plug-In . SVG Version: 6.00 Build 0)  -->
<svg version="1.1" id="Layer_1" xmlns="http://www.w3.org/2000/svg" xmlns:xlink="http://www.w3.org/1999/xlink" x="0px" y="0px" width="40px"
	 viewBox="0 0 300.1 300.1" style="enable-background:new 0 0 300.1 300.1; fill:#bd9a7a;" xml:space="preserve">
<g>
	<g>
		<g>
			<path d="M253.27,101.77V25.05c0-4.142-3.358-7.5-7.5-7.5H7.5c-4.142,0-7.5,3.358-7.5,7.5v250c0,4.142,3.358,7.5,7.5,7.5
				c10.384,0,239.907,0,250.27,0c4.142,0,7.5-3.358,7.5-7.5v-68.765c20.768-7.974,34.83-28.055,34.83-50.715
				C300.1,128.158,279.69,105.436,253.27,101.77z M226.27,267.55H15v-235h223.27v69.206c-54.399,7.54-65.222,84.123-12,104.542
				V267.55z M250.27,267.55h-9v-57.837c3.448,0.271,6.183,0.229,9,0.002V267.55z M256.188,193.508
				c-5.145,1.118-9.833,2.56-20.719,0.028c-17.121-4.631-29.029-20.224-29.029-37.966c0-21.686,17.643-39.33,39.33-39.33
				c21.686,0,39.33,17.644,39.33,39.33C285.1,173.294,273.229,188.844,256.188,193.508z"/>
			<path d="M108.883,89.55h35.5c4.142,0,7.5-3.358,7.5-7.5c0-4.142-3.358-7.5-7.5-7.5h-35.5c-4.142,0-7.5,3.358-7.5,7.5
				C101.383,86.192,104.741,89.55,108.883,89.55z"/>
			<path d="M163.692,119.883H89.574c-4.142,0-7.5,3.358-7.5,7.5c0,4.142,3.358,7.5,7.5,7.5h74.118c4.142,0,7.5-3.358,7.5-7.5
				C171.192,123.241,167.834,119.883,163.692,119.883z"/>
			<path d="M163.692,165.216H89.574c-4.142,0-7.5,3.358-7.5,7.5c0,4.142,3.358,7.5,7.5,7.5h74.118c4.142,0,7.5-3.358,7.5-7.5
				C171.192,168.574,167.834,165.216,163.692,165.216z"/>
			<path d="M163.692,210.55H89.574c-4.142,0-7.5,3.358-7.5,7.5c0,4.142,3.358,7.5,7.5,7.5h74.118c4.142,0,7.5-3.358,7.5-7.5
				C171.192,213.908,167.834,210.55,163.692,210.55z"/>
			<path d="M245.77,127.59c-15.428,0-27.98,12.552-27.98,27.98c0,15.428,12.551,27.98,27.98,27.98
				c15.426,0,27.98-12.549,27.98-27.98C273.75,140.144,261.201,127.59,245.77,127.59z M245.77,168.55
				c-7.157,0-12.98-5.823-12.98-12.98c0-7.167,5.831-12.98,12.98-12.98c7.158,0,12.98,5.824,12.98,12.98
				S252.928,168.55,245.77,168.55z"/>
		</g>
	</g>
</g>
<g>
</g>
<g>
</g>
<g>
</g>
<g>
</g>
<g>
</g>
<g>
</g>
<g>
</g>
<g>
</g>
<g>
</g>
<g>
</g>
<g>
</g>
<g>
</g>
<g>
</g>
<g>
</g>
<g>
</g>
</svg>
