<svg width="675" height="792" viewBox="0 0 675 792" fill="none" xmlns="http://www.w3.org/2000/svg">
<g clip-path="url(#clip0_23_3)">
<rect width="675" height="792" fill="#BD9A7A"/>
<path d="M84 636C83.6667 638.333 82.5 640 80.5 641C78.8333 642 76.6667 642.333 74 642C71.6667 641.667 69.3333 640.833 67 639.5C65 637.833 63.6667 635.833 63 633.5C61.6667 629.833 62.5 625.167 65.5 619.5C68.8333 613.5 74.8333 605.833 83.5 596.5C91.1667 588.167 101 578.833 113 568.5C125.333 557.833 139 547 154 536C169.333 525 185.833 514.167 203.5 503.5C221.167 492.5 239.5 482.5 258.5 473.5C269.167 468.167 282.167 462.5 297.5 456.5C313.167 450.167 329 445.167 345 441.5C361 437.833 376 436.333 390 437C404 437.667 414.667 442.167 422 450.5C428.667 457.833 431.167 467.167 429.5 478.5C427.833 489.5 423.5 501.5 416.5 514.5C409.833 527.167 401 540.5 390 554.5C379.333 568.5 368.167 582 356.5 595C345.167 608 334 620.167 323 631.5C312 642.833 302.833 652.5 295.5 660.5L297 662.5C298.333 666.167 297.667 669 295 671C292.667 673 290.167 673.167 287.5 671.5L286 670.5C280.667 675.5 273.167 683 263.5 693C253.833 702.667 242.833 713.167 230.5 724.5C218.5 735.833 205.667 747.333 192 759C178.667 770.667 165.5 781 152.5 790C139.833 799.333 127.833 806.667 116.5 812C105.5 817.333 96.5 819.333 89.5 818C85.5 817.333 82.1667 815.333 79.5 812C77.1667 809 76.3333 804.5 77 798.5C77 795.5 76.8333 793.5 76.5 792.5C76.5 791.5 76.5 790.5 76.5 789.5C76.5 788.833 76.8333 787.833 77.5 786.5C78.1667 785.167 79.1667 782.667 80.5 779C98.8333 737.333 119.833 694 143.5 649C167.167 603.667 192.333 557 219 509C199.333 521 180.667 533.333 163 546C155.667 551.333 148 557 140 563C132 569 124.333 575.167 117 581.5C110 587.833 103.333 594.333 97 601C90.6667 607.333 85.1667 613.667 80.5 620C79.1667 621.667 78 623.5 77 625.5C76.3333 627.167 76 628.167 76 628.5C76 629.167 77.3333 629.667 80 630C82.6667 630.333 84 632.333 84 636ZM99 805C107 803.667 116.833 799.167 128.5 791.5C140.5 783.833 153 774.667 166 764C179.333 753.333 192.5 742.167 205.5 730.5C218.833 718.5 230.667 707.5 241 697.5C251.667 687.167 260.167 678.667 266.5 672C273.167 665 276.5 661.5 276.5 661.5C273.5 659.167 267.667 658.833 259 660.5C250.667 662.167 240.833 665.333 229.5 670C218.167 674.667 206.167 680.5 193.5 687.5C181.167 694.5 169.5 702.333 158.5 711C146.167 720.667 135.333 730.667 126 741C117 751 109.5 760.5 103.5 769.5C97.8333 778.167 93.8333 785.5 91.5 791.5C89.1667 797.833 88.8333 802 90.5 804C92.1667 805.667 95 806 99 805ZM243 496.5C243 497.5 242 498.833 240 500.5C237.667 502.833 234.167 508 229.5 516C224.833 524 219.333 533.667 213 545C206.667 556.333 199.833 569 192.5 583C185.5 596.667 178.333 610.5 171 624.5C153.667 657.167 135 693.667 115 734C114.333 735 115.5 733.833 118.5 730.5C121.833 726.833 126.667 722.167 133 716.5C139.333 710.833 147 704.333 156 697C165.333 689.667 175.833 682.667 187.5 676C206.833 665 222.667 657.5 235 653.5C247.667 649.5 257.667 647.5 265 647.5C272.667 647.167 278 647.833 281 649.5C284.333 650.833 286.167 651.5 286.5 651.5C286.833 651.5 289.833 648.5 295.5 642.5C301.167 636.5 307 630.333 313 624C341.333 593.667 363.5 568 379.5 547C395.5 526 406.333 508.5 412 494.5C417 482.167 418.167 472.667 415.5 466C413.167 459.333 408.167 454.833 400.5 452.5C393.167 449.833 383.667 449.167 372 450.5C360.667 451.5 348.333 454 335 458C321.667 461.667 308 466.333 294 472C280.333 477.333 267.333 483.167 255 489.5C248.667 492.5 245.167 494.333 244.5 495C243.833 495.333 243.333 495.833 243 496.5ZM409.059 575.5C412.725 567.167 416.059 559.667 419.059 553C422.059 546.333 424.559 541.333 426.559 538C427.892 536 429.559 534.667 431.559 534C433.559 533 435.392 532.833 437.059 533.5C438.725 533.833 440.059 534.833 441.059 536.5C442.059 538.167 442.059 540.5 441.059 543.5C440.725 544.5 440.059 545.5 439.059 546.5C438.392 547.5 437.725 548 437.059 548C436.059 548.333 433.892 552 430.559 559C427.225 566 423.559 574.5 419.559 584.5C415.559 594.167 411.559 604.333 407.559 615C403.559 625.333 400.225 634.167 397.559 641.5C395.892 646.5 393.725 653 391.059 661C388.392 668.667 385.725 677.167 383.059 686.5C380.392 695.5 377.725 705 375.059 715C372.392 724.667 370.059 734.167 368.059 743.5C366.392 752.5 365.059 760.833 364.059 768.5C363.059 775.833 362.892 781.833 363.559 786.5C364.225 790.5 364.725 792.5 365.059 792.5C368.392 792.5 374.392 787.167 383.059 776.5C391.725 766.167 401.725 753 413.059 737C424.725 721 436.892 703.667 449.559 685C462.225 666 474.059 648.167 485.059 631.5C496.059 614.5 505.392 599.833 513.059 587.5C521.059 574.833 526.059 567 528.059 564C529.059 562.333 531.392 558.5 535.059 552.5C539.059 546.167 543.725 539 549.059 531C554.392 522.667 559.892 514 565.559 505C571.559 495.667 577.059 487.167 582.059 479.5C587.392 471.833 591.892 465.333 595.559 460C599.559 454.667 602.059 451.667 603.059 451C605.725 449.333 608.059 449.167 610.059 450.5C612.059 451.833 613.059 453.833 613.059 456.5C612.725 457.5 612.225 458.5 611.559 459.5C610.892 460.5 609.225 463 606.559 467C598.225 478.667 587.392 494.833 574.059 515.5C561.059 535.833 546.892 558 531.559 582C516.225 606 500.392 630.667 484.059 656C467.725 681.333 452.059 704.5 437.059 725.5C422.392 746.5 409.059 764.167 397.059 778.5C385.392 793.167 376.392 801.833 370.059 804.5C361.059 808.167 355.225 806.167 352.559 798.5C349.892 791.167 349.392 780.667 351.059 767C352.725 753 355.892 737 360.559 719C365.225 700.667 370.392 682.5 376.059 664.5C382.059 646.167 388.059 629.167 394.059 613.5C400.059 597.5 405.059 584.833 409.059 575.5Z" fill="black"/>
</g>
<defs>
<clipPath id="clip0_23_3">
<rect width="675" height="792" fill="white"/>
</clipPath>
</defs>
</svg>
