<svg width="554" height="387" viewBox="0 0 554 387" fill="none" xmlns="http://www.w3.org/2000/svg">
<g clip-path="url(#clip0_23_3)">
<path d="M23 201C22.6667 203.333 21.5 205 19.5 206C17.8333 207 15.6667 207.333 13 207C10.6667 206.667 8.33333 205.833 6 204.5C4 202.833 2.66667 200.833 2 198.5C0.666667 194.833 1.5 190.167 4.5 184.5C7.83333 178.5 13.8333 170.833 22.5 161.5C30.1667 153.167 40 143.833 52 133.5C64.3333 122.833 78 112 93 101C108.333 90 124.833 79.1667 142.5 68.5C160.167 57.5 178.5 47.5 197.5 38.5C208.167 33.1667 221.167 27.5 236.5 21.5C252.167 15.1666 268 10.1667 284 6.49999C300 2.83331 315 1.33331 329 1.99999C343 2.66665 353.667 7.16665 361 15.5C367.667 22.8333 370.167 32.1666 368.5 43.5C366.833 54.5 362.5 66.5 355.5 79.5C348.833 92.1666 340 105.5 329 119.5C318.333 133.5 307.167 147 295.5 160C284.167 173 273 185.167 262 196.5C251 207.833 241.833 217.5 234.5 225.5L236 227.5C237.333 231.167 236.667 234 234 236C231.667 238 229.167 238.167 226.5 236.5L225 235.5C219.667 240.5 212.167 248 202.5 258C192.833 267.667 181.833 278.167 169.5 289.5C157.5 300.833 144.667 312.333 131 324C117.667 335.667 104.5 346 91.5 355C78.8333 364.333 66.8333 371.667 55.5 377C44.5 382.333 35.5 384.333 28.5 383C24.5 382.333 21.1667 380.333 18.5 377C16.1667 374 15.3333 369.5 16 363.5C16 360.5 15.8333 358.5 15.5 357.5C15.5 356.5 15.5 355.5 15.5 354.5C15.5 353.833 15.8333 352.833 16.5 351.5C17.1667 350.167 18.1667 347.667 19.5 344C37.8333 302.333 58.8333 259 82.5 214C106.167 168.667 131.333 122 158 74C138.333 86 119.667 98.3333 102 111C94.6667 116.333 87 122 79 128C71 134 63.3333 140.167 56 146.5C49 152.833 42.3333 159.333 36 166C29.6667 172.333 24.1667 178.667 19.5 185C18.1667 186.667 17 188.5 16 190.5C15.3333 192.167 15 193.167 15 193.5C15 194.167 16.3333 194.667 19 195C21.6667 195.333 23 197.333 23 201ZM38 370C46 368.667 55.8333 364.167 67.5 356.5C79.5 348.833 92 339.667 105 329C118.333 318.333 131.5 307.167 144.5 295.5C157.833 283.5 169.667 272.5 180 262.5C190.667 252.167 199.167 243.667 205.5 237C212.167 230 215.5 226.5 215.5 226.5C212.5 224.167 206.667 223.833 198 225.5C189.667 227.167 179.833 230.333 168.5 235C157.167 239.667 145.167 245.5 132.5 252.5C120.167 259.5 108.5 267.333 97.5 276C85.1667 285.667 74.3333 295.667 65 306C56 316 48.5 325.5 42.5 334.5C36.8333 343.167 32.8333 350.5 30.5 356.5C28.1667 362.833 27.8333 367 29.5 369C31.1667 370.667 34 371 38 370ZM182 61.5C182 62.5 181 63.8333 179 65.5C176.667 67.8333 173.167 73 168.5 81C163.833 89 158.333 98.6667 152 110C145.667 121.333 138.833 134 131.5 148C124.5 161.667 117.333 175.5 110 189.5C92.6667 222.167 74 258.667 54 299C53.3333 300 54.5 298.833 57.5 295.5C60.8333 291.833 65.6667 287.167 72 281.5C78.3333 275.833 86 269.333 95 262C104.333 254.667 114.833 247.667 126.5 241C145.833 230 161.667 222.5 174 218.5C186.667 214.5 196.667 212.5 204 212.5C211.667 212.167 217 212.833 220 214.5C223.333 215.833 225.167 216.5 225.5 216.5C225.833 216.5 228.833 213.5 234.5 207.5C240.167 201.5 246 195.333 252 189C280.333 158.667 302.5 133 318.5 112C334.5 91 345.333 73.5 351 59.5C356 47.1667 357.167 37.6667 354.5 31C352.167 24.3333 347.167 19.8333 339.5 17.5C332.167 14.8333 322.667 14.1667 311 15.5C299.667 16.5 287.333 19 274 23C260.667 26.6666 247 31.3333 233 37C219.333 42.3333 206.333 48.1667 194 54.5C187.667 57.5 184.167 59.3333 183.5 60C182.833 60.3333 182.333 60.8333 182 61.5ZM348.059 140.5C351.725 132.167 355.059 124.667 358.059 118C361.059 111.333 363.559 106.333 365.559 103C366.892 101 368.559 99.6667 370.559 99C372.559 98 374.392 97.8333 376.059 98.5C377.725 98.8333 379.059 99.8333 380.059 101.5C381.059 103.167 381.059 105.5 380.059 108.5C379.725 109.5 379.059 110.5 378.059 111.5C377.392 112.5 376.725 113 376.059 113C375.059 113.333 372.892 117 369.559 124C366.225 131 362.559 139.5 358.559 149.5C354.559 159.167 350.559 169.333 346.559 180C342.559 190.333 339.225 199.167 336.559 206.5C334.892 211.5 332.725 218 330.059 226C327.392 233.667 324.725 242.167 322.059 251.5C319.392 260.5 316.725 270 314.059 280C311.392 289.667 309.059 299.167 307.059 308.5C305.392 317.5 304.059 325.833 303.059 333.5C302.059 340.833 301.892 346.833 302.559 351.5C303.225 355.5 303.725 357.5 304.059 357.5C307.392 357.5 313.392 352.167 322.059 341.5C330.725 331.167 340.725 318 352.059 302C363.725 286 375.892 268.667 388.559 250C401.225 231 413.059 213.167 424.059 196.5C435.059 179.5 444.392 164.833 452.059 152.5C460.059 139.833 465.059 132 467.059 129C468.059 127.333 470.392 123.5 474.059 117.5C478.059 111.167 482.725 104 488.059 96C493.392 87.6667 498.892 79 504.559 70C510.559 60.6666 516.059 52.1666 521.059 44.5C526.392 36.8333 530.892 30.3333 534.559 25C538.559 19.6666 541.059 16.6666 542.059 16C544.725 14.3333 547.059 14.1667 549.059 15.5C551.059 16.8333 552.059 18.8333 552.059 21.5C551.725 22.5 551.225 23.5 550.559 24.5C549.892 25.5 548.225 28 545.559 32C537.225 43.6666 526.392 59.8333 513.059 80.5C500.059 100.833 485.892 123 470.559 147C455.225 171 439.392 195.667 423.059 221C406.725 246.333 391.059 269.5 376.059 290.5C361.392 311.5 348.059 329.167 336.059 343.5C324.392 358.167 315.392 366.833 309.059 369.5C300.059 373.167 294.225 371.167 291.559 363.5C288.892 356.167 288.392 345.667 290.059 332C291.725 318 294.892 302 299.559 284C304.225 265.667 309.392 247.5 315.059 229.5C321.059 211.167 327.059 194.167 333.059 178.5C339.059 162.5 344.059 149.833 348.059 140.5Z" fill="#DFBC8D" fill-opacity="0.18"/>
</g>
<defs>
<clipPath id="clip0_23_3">
<rect width="554" height="387" fill="white"/>
</clipPath>
</defs>
</svg>
