<?xml version="1.0" encoding="iso-8859-1"?>
<!-- Generator: Adobe Illustrator 17.1.0, SVG Export Plug-In . SVG Version: 6.00 Build 0)  -->
<!DOCTYPE svg PUBLIC "-//W3C//DTD SVG 1.1//EN" "http://www.w3.org/Graphics/SVG/1.1/DTD/svg11.dtd">
<svg version="1.1" id="Capa_1" xmlns="http://www.w3.org/2000/svg" xmlns:xlink="http://www.w3.org/1999/xlink" x="0px" y="0px" width="40px"
	 viewBox="0 0 401.479 401.479" style="enable-background:new 0 0 401.479 401.479; fill:#bd9a7a;" xml:space="preserve">
<path d="M196.447,376.458c0,4.971-4.029,9-9,9h-32.706c-0.05,0.001-0.101,0.001-0.15,0.001c-0.375,0-0.748-0.022-1.119-0.069
	c-0.757-0.093-1.486-0.281-2.173-0.551c-1.424-0.557-2.725-1.483-3.747-2.765l-80.1-100.329c-0.559-0.669-1.024-1.424-1.374-2.25
	c-0.329-0.776-0.543-1.586-0.644-2.404c-0.213-1.7,0.068-3.365,0.74-4.838c0.335-0.737,0.773-1.437,1.311-2.073
	c0.988-1.174,2.281-2.103,3.789-2.651c0.458-0.168,0.924-0.296,1.396-0.387c31.778-6.51,72.134-21.331,81.445-41.721
	c2.064-4.521,7.406-6.513,11.925-4.447c4.521,2.064,6.513,7.404,4.448,11.925c-12.397,27.147-54.919,41.993-80.2,48.602
	l68.626,85.958h28.531C192.418,367.458,196.447,371.487,196.447,376.458z M126.589,226.916c4.971,0,9-4.029,9-9s-4.029-9-9-9
	c-16.048,0-29.104-13.057-29.104-29.105v-75.176C97.484,56.864,136.349,18,184.12,18c47.771,0,86.636,38.864,86.636,86.635v75.176
	c0,16.049-13.057,29.105-29.104,29.105c-4.971,0-9,4.029-9,9s4.029,9,9,9c25.974,0,47.104-21.132,47.104-47.105v-75.176
	C288.757,46.938,241.816,0,184.119,0C126.423,0,79.484,46.938,79.484,104.635v75.176
	C79.484,205.784,100.615,226.916,126.589,226.916z M250.673,272.168c3.554,0,6.921-2.118,8.341-5.613
	c1.871-4.605-0.345-9.855-4.949-11.727c-21.063-8.56-35.279-19.003-40.031-29.407c-2.065-4.521-7.403-6.514-11.926-4.447
	c-4.521,2.065-6.512,7.404-4.447,11.926c6.861,15.021,23.559,28.01,49.627,38.604C248.397,271.955,249.544,272.168,250.673,272.168z
	 M153.331,121.639c-3.79,1.998-7.709,4.064-11.508,6.2c-7.95,4.47-15.574,9.747-17.52,18.019c-1.705,7.25,1.713,13.534,4.882,18.2
	c7.24,10.657,26.894,35.449,53.005,35.492c8.067-0.015,16.053-2.578,25.892-8.313c23.503-13.698,38.104-39.742,38.104-67.968
	c0-11.784-1.896-22.657-5.635-32.317c-1.795-4.635-7.007-6.938-11.643-5.145c-4.636,1.795-6.938,7.007-5.145,11.643
	c2.935,7.579,4.422,16.266,4.422,25.819c0,21.846-11.177,41.931-29.168,52.417c-6.944,4.047-12.144,5.855-16.829,5.864
	c-14.291-0.023-29.059-14.276-38.114-27.606c-1.643-2.419-2.072-3.597-2.184-4.034c0.388-0.605,2.063-2.618,8.753-6.381
	c3.587-2.017,7.396-4.024,11.081-5.967c20.514-10.815,41.726-21.998,45.404-44.241c3.291-19.9-3.792-31.984-10.314-38.617
	c-10.506-10.685-27.479-15.186-46.568-12.363c-4.917,0.729-8.313,5.305-7.584,10.222c0.728,4.917,5.307,8.305,10.222,7.585
	c13.333-1.978,24.668,0.641,31.095,7.177c5.229,5.317,7.042,13.075,5.391,23.06C187.151,103.809,170.723,112.47,153.331,121.639z
	 M333.477,302.682l-18.517-18.518c-13.721-13.718-36.044-13.722-49.765,0L218.8,330.561c-13.719,13.72-13.719,36.044,0,49.764
	l18.518,18.519c1.758,1.757,4.061,2.636,6.364,2.636c2.303,0,4.606-0.879,6.364-2.636c3.515-3.515,3.515-9.213,0-12.728
	l-18.518-18.52c-6.702-6.701-6.701-17.605,0-24.308l46.396-46.396c6.699-6.701,17.604-6.703,24.308,0l18.517,18.517
	c3.515,3.515,9.213,3.516,12.728,0.001C336.992,311.896,336.992,306.197,333.477,302.682z M295.741,307.057
	c-3.516-3.515-9.214-3.516-12.728-0.001c-3.516,3.515-3.516,9.213-0.001,12.728l11.361,11.362c1.758,1.758,4.061,2.637,6.364,2.637
	c2.303,0,4.606-0.879,6.363-2.636c3.516-3.515,3.516-9.213,0.001-12.728L295.741,307.057z M275.08,327.716
	c-3.515-3.513-9.212-3.515-12.729,0c-3.515,3.515-3.515,9.213,0,12.729l16.682,16.682c1.758,1.758,4.061,2.637,6.364,2.637
	c2.303,0,4.606-0.879,6.364-2.636c3.515-3.515,3.515-9.213,0-12.728L275.08,327.716z M254.419,348.377
	c-3.516-3.514-9.213-3.514-12.729,0c-3.515,3.515-3.515,9.214,0,12.729l11.362,11.362c1.758,1.757,4.061,2.636,6.364,2.636
	s4.606-0.879,6.364-2.636c3.515-3.515,3.515-9.214,0-12.729L254.419,348.377z"/>
<g>
</g>
<g>
</g>
<g>
</g>
<g>
</g>
<g>
</g>
<g>
</g>
<g>
</g>
<g>
</g>
<g>
</g>
<g>
</g>
<g>
</g>
<g>
</g>
<g>
</g>
<g>
</g>
<g>
</g>
</svg>
