<?xml version="1.0" encoding="iso-8859-1"?>
<!-- Generator: Adobe Illustrator 19.0.0, SVG Export Plug-In . SVG Version: 6.00 Build 0)  -->
<svg version="1.1" id="Layer_1" xmlns="http://www.w3.org/2000/svg" xmlns:xlink="http://www.w3.org/1999/xlink" x="0px" y="0px" width="40px"
	 viewBox="0 0 512.002 512.002" style="enable-background:new 0 0 512.002 512.002;" xml:space="preserve">
<path style="fill:#bd9a7a;" d="M488.729,465.455H23.275c-12.853,0-23.273,10.42-23.273,23.273s10.42,23.273,23.273,23.273h465.455
	c12.853,0,23.273-10.42,23.273-23.273S501.582,465.455,488.729,465.455z"/>
<path style="fill:#bd9a7a;" d="M511.917,21.6c-0.026-0.363-0.05-0.726-0.095-1.088c-0.043-0.377-0.107-0.748-0.171-1.119
	c-0.064-0.386-0.127-0.773-0.213-1.156c-0.076-0.346-0.171-0.684-0.264-1.026c-0.102-0.388-0.206-0.776-0.33-1.161
	c-0.112-0.344-0.244-0.68-0.372-1.018c-0.137-0.36-0.27-0.721-0.424-1.077c-0.154-0.355-0.331-0.7-0.503-1.046
	c-0.161-0.323-0.315-0.645-0.49-0.962c-0.197-0.352-0.416-0.692-0.628-1.035c-0.186-0.296-0.369-0.596-0.571-0.886
	c-0.225-0.324-0.467-0.635-0.707-0.946c-0.23-0.295-0.456-0.591-0.7-0.878c-0.237-0.279-0.489-0.546-0.74-0.815
	c-0.282-0.299-0.565-0.597-0.866-0.886c-0.104-0.101-0.194-0.211-0.301-0.309c-0.155-0.143-0.323-0.262-0.481-0.4
	c-0.315-0.278-0.636-0.549-0.962-0.807c-0.285-0.223-0.576-0.441-0.87-0.65c-0.321-0.23-0.645-0.45-0.976-0.661
	c-0.318-0.203-0.639-0.399-0.967-0.586c-0.329-0.189-0.661-0.368-0.996-0.538c-0.34-0.174-0.683-0.34-1.032-0.496
	c-0.344-0.154-0.69-0.298-1.041-0.434c-0.351-0.138-0.706-0.27-1.067-0.391c-0.36-0.121-0.721-0.231-1.086-0.334
	c-0.365-0.102-0.734-0.199-1.106-0.284c-0.365-0.084-0.732-0.158-1.098-0.223c-0.389-0.07-0.782-0.129-1.178-0.18
	c-0.355-0.045-0.711-0.084-1.067-0.112c-0.419-0.034-0.844-0.054-1.269-0.065c-0.208-0.005-0.408-0.031-0.616-0.031h-93.091
	c-12.853,0-23.273,10.42-23.273,23.273s10.42,23.273,23.273,23.273h39.824L294.144,199.171l-60.475-60.475
	c-4.473-4.473-10.628-6.932-16.898-6.813c-6.326,0.121-12.328,2.81-16.628,7.449L6.205,348.581
	c-8.738,9.427-8.18,24.151,1.249,32.889c4.479,4.152,10.153,6.204,15.813,6.204c6.253,0,12.49-2.506,17.074-7.453l177.507-191.519
	l60.483,60.483c4.475,4.475,10.606,6.934,16.904,6.813c6.327-0.121,12.33-2.814,16.631-7.457L465.456,82.663v33.702
	c0,12.853,10.42,23.273,23.273,23.273c12.853,0,23.273-10.42,23.273-23.273V23.274c0-0.144-0.02-0.284-0.022-0.427
	C511.972,22.428,511.946,22.014,511.917,21.6z"/>
<path style="fill:#bd9a7a;" d="M233.669,138.697c-4.473-4.473-10.628-6.932-16.898-6.813c-6.326,0.121-12.328,2.81-16.628,7.449
	L6.205,348.583c-8.738,9.427-8.18,24.151,1.249,32.889c4.479,4.152,10.153,6.204,15.813,6.204c6.253,0,12.49-2.506,17.074-7.453
	l177.507-191.519l38.153,38.149v-65.825L233.669,138.697z"/>
<g>
</g>
<g>
</g>
<g>
</g>
<g>
</g>
<g>
</g>
<g>
</g>
<g>
</g>
<g>
</g>
<g>
</g>
<g>
</g>
<g>
</g>
<g>
</g>
<g>
</g>
<g>
</g>
<g>
</g>
</svg>
